<svg width="233" height="286" viewBox="0 0 233 286" fill="none" xmlns="http://www.w3.org/2000/svg">
<path d="M103.403 78.7112C103.264 78.7113 103.127 78.6836 103 78.6296C102.872 78.5757 102.757 78.4967 102.66 78.3973C102.564 78.2979 102.489 78.1802 102.439 78.0512C102.389 77.9222 102.366 77.7845 102.371 77.6465C101.876 68.9968 101.876 60.3261 102.371 51.6764C103.512 31.8244 107.222 17.3865 113.412 8.92232C117.593 3.16523 122.878 0.169382 129.122 0.0430512C133.336 -0.196646 137.546 0.567105 141.404 2.27115C145.263 3.9752 148.659 6.5706 151.312 9.84275C163.24 24.2806 164.978 52.1456 164.996 77.8269C165.021 78.1087 164.935 78.3891 164.756 78.6084C164.576 78.8276 164.318 78.9681 164.036 79C163.759 78.9682 163.506 78.8295 163.33 78.6136C163.154 78.3978 163.07 78.1219 163.095 77.845C163.095 52.5788 161.412 25.2912 149.991 11.5031C147.509 8.42512 144.32 5.98835 140.694 4.39885C137.068 2.80935 133.111 2.11386 129.159 2.37117C126.29 2.46617 123.488 3.253 120.991 4.66426C118.495 6.07552 116.378 8.06914 114.824 10.4744C101.901 28.3051 103.964 70.0305 104.326 77.466C104.365 77.7419 104.3 78.0225 104.142 78.2528C103.985 78.4831 103.747 78.6466 103.475 78.7112H103.403Z" fill="#2F2F2F"/>
<path d="M214.498 67.7035L220.468 57L233 275.447L209 286L214.498 67.7035Z" fill="#B42961"/>
<path d="M62.1632 53L220 55.9592L210.158 286L58 284.18L62.1632 53Z" fill="#DB3472"/>
<path d="M165.134 82.9967C164.037 83.0745 163.067 81.7817 163.003 80.1151C162.94 78.4485 163.751 77 164.864 77C165.977 77 166.915 78.2149 166.995 79.8815C167.074 81.5481 166.247 82.9967 165.134 82.9967Z" fill="#F3F3F3"/>
<path d="M104.134 82.9967C103.037 83.0745 102.067 81.7817 102.003 80.1151C101.94 78.4485 102.751 77 103.864 77C104.977 77 105.915 78.2149 105.995 79.8815C106.074 81.5481 105.247 82.9967 104.134 82.9967Z" fill="#F3F3F3"/>
<path d="M103.403 78.7112C103.264 78.7113 103.127 78.6836 103 78.6296C102.872 78.5757 102.757 78.4967 102.66 78.3973C102.564 78.2979 102.489 78.1802 102.439 78.0512C102.389 77.9222 102.366 77.7845 102.371 77.6465C101.876 68.9968 101.876 60.3261 102.371 51.6764C103.512 31.8244 107.222 17.3865 113.412 8.92232C117.593 3.16523 122.878 0.169382 129.122 0.0430512C133.336 -0.196646 137.546 0.567105 141.404 2.27115C145.263 3.9752 148.659 6.5706 151.312 9.84275C163.24 24.2806 164.978 52.1456 164.996 77.8269C165.021 78.1087 164.935 78.3891 164.756 78.6084C164.576 78.8276 164.318 78.9681 164.036 79C163.759 78.9682 163.506 78.8295 163.33 78.6136C163.154 78.3978 163.07 78.1219 163.095 77.845C163.095 52.5788 161.412 25.2912 149.991 11.5031C147.509 8.42512 144.32 5.98835 140.694 4.39885C137.068 2.80935 133.111 2.11386 129.159 2.37117C126.29 2.46617 123.488 3.253 120.991 4.66426C118.495 6.07552 116.378 8.06914 114.824 10.4744C101.901 28.3051 103.964 70.0305 104.326 77.466C104.365 77.7419 104.3 78.0225 104.142 78.2528C103.985 78.4831 103.747 78.6466 103.475 78.7112H103.403Z" fill="#2F2F2F"/>
<path d="M166.778 94.4087L173.416 85L188 286H177.286H163L166.778 94.4087Z" fill="#412354"/>
<path d="M4.49473 83L175 85.5654L164.378 286L0 284.424L4.49473 83Z" fill="#EDBC5A"/>
<path d="M47.5491 111.74C47.2729 111.766 46.9978 111.681 46.7836 111.504C46.5694 111.326 46.4335 111.071 46.4055 110.793C45.8648 103.016 45.8648 95.2097 46.4055 87.4324C47.6413 69.6055 51.699 56.681 58.4866 48.9931C60.6201 46.4996 63.2605 44.4963 66.2294 43.1187C69.1982 41.7411 72.4262 41.0214 75.6951 41.0082C85.7289 40.8225 93.9181 43.7936 100.023 49.8288C113.082 62.8276 114.982 87.8594 115 110.96C115 111.236 114.891 111.5 114.697 111.695C114.504 111.89 114.241 112 113.967 112C113.693 112 113.43 111.89 113.237 111.695C113.043 111.5 112.934 111.236 112.934 110.96C112.934 88.3051 111.09 63.7189 98.5661 51.3143C92.793 45.6135 85.3231 42.9208 75.732 43.1065C72.7527 43.1144 69.8102 43.7688 67.1047 45.025C64.3993 46.2811 61.9946 48.1096 60.0543 50.3859C45.8706 66.43 48.0286 103.959 48.5451 110.626C48.5655 110.899 48.4782 111.169 48.3021 111.378C48.126 111.586 47.8753 111.716 47.6044 111.74H47.5491Z" fill="#2F2F2F"/>
</svg>
